<?xml version="1.0" encoding="utf-8"?>
<!-- Generator: Adobe Illustrator 18.1.1, SVG Export Plug-In . SVG Version: 6.00 Build 0)  -->
<!DOCTYPE svg PUBLIC "-//W3C//DTD SVG 1.1//EN" "http://www.w3.org/Graphics/SVG/1.1/DTD/svg11.dtd">
<svg version="1.1" id="Layer_1" xmlns="http://www.w3.org/2000/svg" xmlns:xlink="http://www.w3.org/1999/xlink" x="0px" y="0px"
	 viewBox="0 0 508 90" enable-background="new 0 0 508 90" xml:space="preserve">
<g>
	<path d="M41.6,67.3c0,15.2-6.1,19.3-10.9,21.2C26.6,90,22.3,90,21,90C1.5,90,0,73.8,0,63.8V29.3c0-6.7,0.2-16.2,4.7-22.2
		C8.5,2,15.8,0,21.9,0c7.8,0,12.3,3.2,14.6,5.6c3.3,3.5,4.6,7.9,4.6,17.6v5.7H30.9v-8.3c0-6.3-1.9-11.4-9-11.4
		c-2.7,0-8.3,0.6-9.9,7.7c-0.7,3.2-1.2,8.9-1.2,16.2V55c0,8.4,0.2,18.3,2.1,21.5c2.4,4.2,7.6,4.3,8.8,4.3c9.7,0,9.8-9.9,9.8-16.3
		v-6.6h10.2V67.3z"/>
	<path d="M64.2,88.8V1.4H75v87.4H64.2z"/>
	<path d="M119.1,11.1v77.6h-10.8V11.1H91.7V1.4h43.9v9.8H119.1z"/>
	<path d="M152.4,88.8V1.4h10.8v87.4H152.4z"/>
	<path d="M182.6,88.8v-8.9l28.7-68.7h-24.6V1.4h36.9v8.3l-29.2,69.4h29.2v9.7H182.6z"/>
	<path d="M244.4,88.8V1.4h38.5v9.8h-27.6v26h24.1V47h-24.1V79h28.5v9.8H244.4z"/>
	<path d="M331.6,88.8L314.6,13c0,0,1,51.9,1.5,75.8h-10.8V1.4h15l17.7,76.5c0,0-1.2-65-1.5-76.5H347v87.4H331.6z"/>
	<path d="M403.7,88.8V1.4h38.5v9.8h-27.6v26h24.1V47h-24.1V79H443v9.8H403.7z"/>
	<path d="M495.7,88.8l-13.4-37.9l-12.5,37.9h-11.4l16.7-47.7L459.5,1.4h12L482,34.9l9.8-33.5h11.6l-14.4,39.7l18.3,47.7H495.7z"/>
</g>
<g>
</g>
<g>
</g>
<g>
</g>
<g>
</g>
<g>
</g>
<g>
</g>
<g>
</g>
<g>
</g>
<g>
</g>
<g>
</g>
<g>
</g>
<g>
</g>
<g>
</g>
<g>
</g>
<g>
</g>
</svg>
