<?xml version="1.0" encoding="utf-8"?>
<!-- Generator: Adobe Illustrator 18.1.1, SVG Export Plug-In . SVG Version: 6.00 Build 0)  -->
<!DOCTYPE svg PUBLIC "-//W3C//DTD SVG 1.1//EN" "http://www.w3.org/Graphics/SVG/1.1/DTD/svg11.dtd">
<svg version="1.1" id="outlines" xmlns="http://www.w3.org/2000/svg" xmlns:xlink="http://www.w3.org/1999/xlink" x="0px" y="0px"
	 viewBox="0 0 105.1 23.5" enable-background="new 0 0 105.1 23.5" xml:space="preserve">
<g>
	<path d="M12.3,14.6v3.7c0,3-1.6,5.2-6.2,5.2c-1.6,0-6.1-0.3-6.1-4.8V5.5C0,2,1.8,0,6.3,0c3.6,0,6,1.4,6,4.5v4.2H8.2V5.9
		c0-1.7-0.3-2.7-2.1-2.7c-1.6,0-1.9,1-1.9,2.5v12.1c0,1.5,0.3,2.6,2,2.6c1.9,0,2-1.1,2-2.8v-2.9H12.3z"/>
	<path d="M14.6,4.3V0.5h3.8v3.8H14.6z M14.6,23.1V6.7h3.8v16.4H14.6z"/>
	<path d="M25.9,18.6c0,1.2,0.4,1.7,1.7,1.7c0.2,0,0.4,0,0.6-0.1V23c-0.4,0.1-1,0.2-2,0.2c-3.2,0-4.2-0.9-4.2-3.4V9.2h-2.1V6.7h2v-6
		h3.8v6h2.3v2.5h-2.3V18.6z"/>
	<path d="M30,4.3V0.5h3.8v3.8H30z M30,23.1V6.7h3.8v16.4H30z"/>
	<path d="M36,23.1v-3.2l5.7-10.1h-5.1V6.7h9v3.1l-5.7,10.1h5.9v3.2H36z"/>
	<path d="M51.6,15.7v2.9c0,1.2,0.4,1.8,1.4,1.8c1.2,0,1.3-1.1,1.3-2.2v-0.5H58V19c0,3.1-2,4.4-5,4.4c-4.2,0-5.2-2.6-5.2-5.3v-6.9
		c0-3,2-4.8,5.2-4.8c3.1,0,5.1,1.7,5.1,4.4v5H51.6z M54.3,11c0-0.4,0-1.6-1.3-1.6c-1.4,0-1.4,1.2-1.4,1.6v2h2.7V11z"/>
	<path d="M67.4,23.1V11c0-1.2-0.3-2-1.3-2c-1.2,0-1.6,0.6-1.6,2.2v11.8h-3.8V6.7h3.8v1.2c1-1,1.8-1.5,3.3-1.5c2.5,0,3.4,1.8,3.4,3.3
		v13.4H67.4z"/>
	<path d="M81.5,23.1V0.5h10.9v3.4h-6.8v5.3H92v3.4h-6.4v6.9h7.1v3.5H81.5z"/>
	<path d="M101,23.1l-1.9-6.6l-1.9,6.6h-3.9l3.6-8.9L94,6.7h3.9l1.4,5.5l1.5-5.5h3.7l-2.9,7.5l3.5,8.9H101z"/>
</g>
<g>
</g>
<g>
</g>
<g>
</g>
<g>
</g>
<g>
</g>
<g>
</g>
<g>
</g>
<g>
</g>
<g>
</g>
<g>
</g>
<g>
</g>
<g>
</g>
<g>
</g>
<g>
</g>
<g>
</g>
</svg>
